<?xml version="1.0" encoding="utf-8"?>
<!-- Generator: Adobe Illustrator 20.1.0, SVG Export Plug-In . SVG Version: 6.00 Build 0)  -->
<svg version="1.1" id="Layer_1" xmlns="http://www.w3.org/2000/svg" xmlns:xlink="http://www.w3.org/1999/xlink" x="0px" y="0px"
	 viewBox="0 0 126 25" style="enable-background:new 0 0 126 25;" xml:space="preserve">
<style type="text/css">
	.st0{fill:#FECC2F;}
	.st1{fill:#FEEBAE;}
</style>
<path class="st0" d="M120.7,15c-0.1-1.7-1.4-3.1-1.9-4.7c-0.6-1.9-0.5-3.7-2.1-5.5c-3.3-3.6-11.4-1.6-17.1-1.4
	c-7.2,0.3-14.4,0.1-21.7,0C63.4,3.3,49,1.8,34.5,2C30.2,2.1,26,2.6,21.7,3c-1.9,0.2-3.7,0.3-5.6,0.3c-1.5,0-3-0.1-4.4,0.1
	C7.6,3.9,6.2,5.7,6.3,7.6c0,1,0.5,1.9,0.4,2.9c-0.1,1-1,2-1.2,3.1c-2,9.9,25.6,8.1,37.6,8.1c0.8,0,1.4-0.1,2-0.2
	c6.1,0.2,12.2,0.1,18.3,0.3c7.4,0.2,14.5,0.9,22,0.6c3.9-0.1,7.8-0.5,11.7-0.7c4-0.2,8-0.2,12-0.5c3-0.2,6.8-0.4,9.1-1.5
	C120.6,18.6,120.8,16.6,120.7,15z"/>
</svg>
