<svg id="Layer_1" data-name="Layer 1" xmlns="http://www.w3.org/2000/svg" viewBox="0 0 416.84 278.4"><title>Artboard 1</title><path d="M13.42,161.43H0V148.75H39.38v12.68H26v71H13.42Z"/><path d="M95.66,148.75h13.24L95.82,232.39h-12l-7.19-46-6.71,46H57.83l-14-83.63H57l6.61,44.79,6.08-44.79H82.94l6.6,44.75Z"/><path d="M127.47,232.39H114.86V148.75h12.62Z"/><path d="M150.59,148.69l16.74,56.25V148.69h12.62v83.7H166.4L149,178.79v53.6H136.43v-83.7Z"/><path d="M222.82,232.39H210.21v-83.7h35.91v12.68H222.82v22.83h17v12.68h-17Z"/><path d="M266.47,232.39H253.85V148.75h12.62Z"/><path d="M290.53,148.69l16.74,56.25V148.69h12.62v83.7H306.33L289,178.79v53.6H276.37v-83.7Z"/><path d="M347.27,233.45a19.94,19.94,0,0,1-20-20V167.84a20,20,0,1,1,40,0v9.54H354.14v-9.81a7.3,7.3,0,0,0-7.28-7.28,6.9,6.9,0,0,0-5.11,2.14,7.07,7.07,0,0,0-2.1,5.14v45.79a7.18,7.18,0,0,0,7.21,7.21,7.06,7.06,0,0,0,5.14-2.1,6.9,6.9,0,0,0,2.14-5.11V201.82h13.08V213.5a19.94,19.94,0,0,1-20,20Z"/><path d="M387.39,196.94v35.44H374.78V148.75h12.62v35.51h15.22V148.75h12.62v83.63H402.61V196.94Z"/><path d="M186.31,278.15l-1.37-3.9H174.26l-1.37,3.9h-6l9.45-26.48h6.49l9.45,26.48Zm-10.1-9.34H183l-3.39-9.49Z"/><path d="M203.84,278.4a10.88,10.88,0,0,1-3.79-.65,11,11,0,0,1-3.12-1.73,8.08,8.08,0,0,1-2.13-2.54,6.48,6.48,0,0,1-.78-3.08h5.48a1.38,1.38,0,0,0,.31.76,3.59,3.59,0,0,0,.87.83,5.2,5.2,0,0,0,1.35.67,5.59,5.59,0,0,0,1.8.27,7,7,0,0,0,2.56-.38,4.46,4.46,0,0,0,1.41-.83,2.93,2.93,0,0,0,.72-1.21,6.94,6.94,0,0,0-.05-.87,1.58,1.58,0,0,0-.34-.79,3.37,3.37,0,0,0-1.73-1,11.43,11.43,0,0,0-3-.34,11.1,11.1,0,0,1-2.47-.25,10.1,10.1,0,0,1-1.93-.63,7.55,7.55,0,0,1-1.44-.85,6.42,6.42,0,0,1-1-.94,6.9,6.9,0,0,1-1.23-1.82,8.86,8.86,0,0,1-.61-1.8,8.32,8.32,0,0,1-.2-1.48q0-.63,0-.92a7.11,7.11,0,0,1,.07-.81,6.4,6.4,0,0,1,.31-1.25,10,10,0,0,1,.65-1.46,6.41,6.41,0,0,1,1.14-1.5A9.9,9.9,0,0,1,204,251.2a9.53,9.53,0,0,1,7.22,2.71,8,8,0,0,1,1.41,1.95,9.27,9.27,0,0,1,.72,1.88,8.16,8.16,0,0,1,.25,1.48c0,.41,0,.66,0,.76l-5.48-.18v.07a4,4,0,0,0-.14-1,2.51,2.51,0,0,0-.58-1,3.24,3.24,0,0,0-1.26-.81,6,6,0,0,0-2.17-.32,6.91,6.91,0,0,0-2.07.25,3.46,3.46,0,0,0-1.19.61,1.88,1.88,0,0,0-.56.76,2,2,0,0,0-.14.65v.25l0,0a3.65,3.65,0,0,0,.07.72c0,.19.11.4.18.63a1.55,1.55,0,0,0,.4.63,3.84,3.84,0,0,0,2.78.83q5.12,0,7.9,2.22a7.56,7.56,0,0,1,2.78,6.26,6.74,6.74,0,0,1-.56,2.53,7.67,7.67,0,0,1-1.77,2.56,9.58,9.58,0,0,1-3.16,2A12.53,12.53,0,0,1,203.84,278.4Z"/><path d="M235.12,257.15H229v21h-5.52v-21h-6.13v-5.48h17.79Z"/><path d="M245.19,257.15v5.38H257.1V268H245.19v4.54h12.38v5.52H239.71V251.67h17.86v5.48Z"/><path d="M282.75,268.73a10.41,10.41,0,0,1,1.8,2.11,13.64,13.64,0,0,1,1.25,2.42,12.87,12.87,0,0,1,.7,2.51,14.11,14.11,0,0,1,.22,2.38h-5.45c0-.17,0-.45-.05-.85A8.78,8.78,0,0,0,281,276a8,8,0,0,0-.54-1.48,5.28,5.28,0,0,0-1-1.41,4.73,4.73,0,0,0-1.57-1,5.85,5.85,0,0,0-2.27-.4h-6.53v6.49h-5.41V251.63h11.94l.79.05A8.1,8.1,0,0,1,278,252a12.31,12.31,0,0,1,2,.81,8.14,8.14,0,0,1,2.09,1.55,11.12,11.12,0,0,1,3,8.22,9.27,9.27,0,0,1-.63,3.57A7.84,7.84,0,0,1,282.75,268.73Zm-7.14-2.53a6.48,6.48,0,0,0,1.12-.13,4.1,4.1,0,0,0,1.33-.51,3.26,3.26,0,0,0,1.1-1.08,3.48,3.48,0,0,0,.45-1.89,7.5,7.5,0,0,0-.49-3A4.51,4.51,0,0,0,278,258a3.33,3.33,0,0,0-1.35-.72,5,5,0,0,0-1-.16h-6.5v9.13Z"/><path d="M300.36,269.71v8.37h-5.52v-8.3l-8.44-18.08h6l5.27,12.81,5.27-12.81h5.88Z"/><rect x="0.61" y="263.27" width="105" height="1.5"/><rect x="311.61" y="263.28" width="105.19" height="1.5"/><rect x="0.61" y="130.41" width="416.19" height="1.5"/><rect x="0.61" y="124.96" width="416.19" height="3"/><path d="M74.1,107.21a11.24,11.24,0,0,0,4.67-.82,11.83,11.83,0,0,0,4.94.14c1.37,1.1,3.3,2.88,15.1-2.75,2.06.28,5.22,1.37,8.79,1.51,2.33,2.88,4.67,4.8,8.92,4.39,3.43,1.23,4.67,1.1,4.67,1.1l.05.15a3.94,3.94,0,0,1,3.25.16v0c1.65.14,15,.94,23.78-1.07a72.06,72.06,0,0,0,24-11.19c5.31-4,18.13-18.58,19.51-32.3s-2-21.74-4.58-28.75a16.41,16.41,0,0,1,.82-14c1.1-2.33,2.06-7.69,2.2-8.37s7.83-10.43,7.83-10.43S194.23,1.64,179.95.68c-1.51-.69-9.61-2.75-22.51,6.59s-9.06,20.32-21,32.4-23.06,27.59-25.54,30.07S102,77,102,81.54l2.61-2.2.14,1.51h3.43s-6.31,6.59-10,9.06S76.71,106,74.1,107.21Zm97.79-94.86c1.07-5.76,5.89-5.22,5.89-5.22a5.24,5.24,0,0,1,.85,6.54C176.44,15,174.57,14.36,171.89,12.35Z"/><path d="M317.1,89.92c-3.71-2.47-10-9.06-10-9.06h3.43l.14-1.51,2.61,2.2c0-4.53-6.45-9.34-8.92-11.81s-13.59-18-25.54-30.07-8.1-23.06-21-32.4S236.78,0,235.27.68c-14.28,1-18.12,4.26-18.12,4.26s7.69,9.75,7.83,10.43,1.1,6,2.2,8.37a16.41,16.41,0,0,1,.82,14c-2.61,7-6,15-4.57,28.75s14.2,28.31,19.51,32.3A72.06,72.06,0,0,0,267,110c8.79,2,22.13,1.21,23.78,1.07v0a3.94,3.94,0,0,1,3.25-.16l.05-.15s1.24.14,4.67-1.1c4.26.41,6.59-1.51,8.92-4.39,3.57-.14,6.73-1.24,8.79-1.51,11.81,5.63,13.73,3.84,15.1,2.75a11.84,11.84,0,0,0,4.94-.14,11.23,11.23,0,0,0,4.67.82C338.51,106,320.8,92.39,317.1,89.92ZM236.59,13.67a5.25,5.25,0,0,1,.85-6.54s4.82-.54,5.89,5.22C240.65,14.36,238.78,15,236.59,13.67Z"/><rect x="0.65" y="267.87" width="105" height="0.5"/><rect x="311.65" y="267.88" width="105.19" height="0.5"/><path d="M165.46,259.73a13.71,13.71,0,0,0-2.83-4.2,13.34,13.34,0,0,0-4.18-2.85,13.17,13.17,0,0,0-10.28,0,13.34,13.34,0,0,0-4.19,2.85,13.7,13.7,0,0,0-2.83,4.2,13.16,13.16,0,0,0,0,10.28,13.7,13.7,0,0,0,2.83,4.2,13.3,13.3,0,0,0,4.19,2.85,13.15,13.15,0,0,0,10.28,0,13.3,13.3,0,0,0,4.18-2.85,13.71,13.71,0,0,0,2.83-4.2,13.16,13.16,0,0,0,0-10.28Zm-5,8.17a8,8,0,0,1-4.15,4.15,7.39,7.39,0,0,1-3,.61,7.48,7.48,0,0,1-3-.61,7.7,7.7,0,0,1-2.45-1.68,8.11,8.11,0,0,1-1.66-2.47,7.79,7.79,0,0,1,0-6.06,8.12,8.12,0,0,1,1.66-2.47,7.77,7.77,0,0,1,2.45-1.68,7.52,7.52,0,0,1,3-.61,7.42,7.42,0,0,1,3,.61,7.95,7.95,0,0,1,4.15,4.15,7.79,7.79,0,0,1,0,6.06Z"/><path d="M138,275.77a12.8,12.8,0,0,0-.7-2.51,13.6,13.6,0,0,0-1.24-2.42,10.42,10.42,0,0,0-1.8-2.11,7.81,7.81,0,0,0,1.68-2.56,9.25,9.25,0,0,0,.63-3.57,11.11,11.11,0,0,0-3-8.22,8.13,8.13,0,0,0-2.09-1.55,12.34,12.34,0,0,0-2-.81,8.12,8.12,0,0,0-1.57-.33l-.79-.05H115.12v26.52h5.41v-6.49h6.53a5.84,5.84,0,0,1,2.27.4,4.73,4.73,0,0,1,1.57,1,5.29,5.29,0,0,1,1,1.41,8,8,0,0,1,.54,1.48,8.74,8.74,0,0,1,.23,1.32c0,.4.05.68.05.85h5.45A14.12,14.12,0,0,0,138,275.77Zm-7.34-11.28a3.26,3.26,0,0,1-1.1,1.08,4.09,4.09,0,0,1-1.33.51,6.48,6.48,0,0,1-1.12.13h-6.53v-9.13H127a5,5,0,0,1,1,.16,3.33,3.33,0,0,1,1.35.72,4.5,4.5,0,0,1,1.15,1.66,7.49,7.49,0,0,1,.49,3A3.47,3.47,0,0,1,130.62,264.49Z"/></svg>